<svg width="20" height="20" viewBox="0 0 20 20" fill="none" xmlns="http://www.w3.org/2000/svg">
<path d="M15.8334 3.33337H4.16675C3.50371 3.33337 2.86782 3.59677 2.39898 4.06561C1.93014 4.53445 1.66675 5.17033 1.66675 5.83337V14.1667C1.66675 14.8297 1.93014 15.4656 2.39898 15.9345C2.86782 16.4033 3.50371 16.6667 4.16675 16.6667H15.8334C16.4965 16.6667 17.1323 16.4033 17.6012 15.9345C18.07 15.4656 18.3334 14.8297 18.3334 14.1667V5.83337C18.3334 5.17033 18.07 4.53445 17.6012 4.06561C17.1323 3.59677 16.4965 3.33337 15.8334 3.33337ZM15.4917 5.00004L10.5917 9.90004C10.5143 9.97815 10.4221 10.0401 10.3206 10.0824C10.219 10.1248 10.1101 10.1465 10.0001 10.1465C9.89007 10.1465 9.78115 10.1248 9.6796 10.0824C9.57805 10.0401 9.48588 9.97815 9.40841 9.90004L4.50841 5.00004H15.4917ZM16.6667 14.1667C16.6667 14.3877 16.579 14.5997 16.4227 14.756C16.2664 14.9122 16.0544 15 15.8334 15H4.16675C3.94573 15 3.73377 14.9122 3.57749 14.756C3.42121 14.5997 3.33341 14.3877 3.33341 14.1667V6.17504L8.23342 11.075C8.70217 11.5432 9.33758 11.8062 10.0001 11.8062C10.6626 11.8062 11.298 11.5432 11.7667 11.075L16.6667 6.17504V14.1667Z" fill="#F0FDF4"/>
</svg>
