<svg width="1440" height="932" viewBox="0 0 1440 932" fill="none" xmlns="http://www.w3.org/2000/svg">
<g clip-path="url(#clip0_34_3152)">
<rect width="1445" height="932" transform="translate(-5)" fill="#0B5C04"/>
<g opacity="0.4">
<rect width="1440" height="1368" transform="translate(-5)" fill="#185013"/>
<line x1="1459" y1="672.5" x2="-29" y2="672.5" stroke="#185013"/>
<line x1="1459" y1="696.5" x2="-29" y2="696.5" stroke="#185013"/>
<line x1="1459" y1="720.5" x2="-29" y2="720.5" stroke="#185013"/>
<line x1="1459" y1="744.5" x2="-29" y2="744.5" stroke="#185013"/>
<line x1="1459" y1="768.5" x2="-29" y2="768.5" stroke="#185013"/>
<line x1="1459" y1="792.5" x2="-29" y2="792.5" stroke="#185013"/>
<line x1="1459" y1="816.5" x2="-29" y2="816.5" stroke="#185013"/>
<line x1="1459" y1="840.5" x2="-29" y2="840.5" stroke="#185013"/>
<line x1="1459" y1="864.5" x2="-29" y2="864.5" stroke="#185013"/>
<line x1="1459" y1="888.5" x2="-29" y2="888.5" stroke="#185013"/>
<line x1="1459" y1="912.5" x2="-29" y2="912.5" stroke="#185013"/>
<line x1="19.5" y1="648" x2="19.5" y2="1368" stroke="#185013"/>
<line x1="19.5" y1="648" x2="19.5" y2="1368" stroke="#185013"/>
<line x1="43.5" y1="648" x2="43.5" y2="1368" stroke="#185013"/>
<line x1="67.5" y1="648" x2="67.5" y2="1368" stroke="#185013"/>
<line x1="91.5" y1="648" x2="91.5" y2="1368" stroke="#185013"/>
<line x1="115.5" y1="648" x2="115.5" y2="1368" stroke="#185013"/>
<line x1="139.5" y1="648" x2="139.5" y2="1368" stroke="#185013"/>
<line x1="163.5" y1="648" x2="163.5" y2="1368" stroke="#185013"/>
<line x1="187.5" y1="648" x2="187.5" y2="1368" stroke="#185013"/>
<line x1="211.5" y1="648" x2="211.5" y2="1368" stroke="#185013"/>
<line x1="235.5" y1="648" x2="235.5" y2="1368" stroke="#185013"/>
<line x1="259.5" y1="648" x2="259.5" y2="1368" stroke="#185013"/>
<line x1="283.5" y1="648" x2="283.5" y2="1368" stroke="#185013"/>
<line x1="307.5" y1="648" x2="307.5" y2="1368" stroke="#185013"/>
<line x1="331.5" y1="648" x2="331.5" y2="1368" stroke="#185013"/>
<line x1="355.5" y1="648" x2="355.5" y2="1368" stroke="#185013"/>
<line x1="379.5" y1="648" x2="379.5" y2="1368" stroke="#185013"/>
<line x1="403.5" y1="648" x2="403.5" y2="1368" stroke="#185013"/>
<line x1="427.5" y1="648" x2="427.5" y2="1368" stroke="#185013"/>
<line x1="451.5" y1="648" x2="451.5" y2="1368" stroke="#185013"/>
<line x1="475.5" y1="648" x2="475.5" y2="1368" stroke="#185013"/>
<line x1="499.5" y1="648" x2="499.5" y2="1368" stroke="#185013"/>
<line x1="523.5" y1="648" x2="523.5" y2="1368" stroke="#185013"/>
<line x1="547.5" y1="648" x2="547.5" y2="1368" stroke="#185013"/>
<line x1="571.5" y1="648" x2="571.5" y2="1368" stroke="#185013"/>
<line x1="595.5" y1="648" x2="595.5" y2="1368" stroke="#185013"/>
<line x1="619.5" y1="648" x2="619.5" y2="1368" stroke="#185013"/>
<line x1="643.5" y1="648" x2="643.5" y2="1368" stroke="#185013"/>
<line x1="667.5" y1="648" x2="667.5" y2="1368" stroke="#185013"/>
<line x1="691.5" y1="648" x2="691.5" y2="1368" stroke="#185013"/>
<line x1="715.5" y1="648" x2="715.5" y2="1368" stroke="#185013"/>
<line x1="739.5" y1="648" x2="739.5" y2="1368" stroke="#185013"/>
<line x1="763.5" y1="648" x2="763.5" y2="1368" stroke="#185013"/>
<line x1="787.5" y1="648" x2="787.5" y2="1368" stroke="#185013"/>
<line x1="811.5" y1="648" x2="811.5" y2="1368" stroke="#185013"/>
<line x1="835.5" y1="648" x2="835.5" y2="1368" stroke="#185013"/>
<line x1="859.5" y1="648" x2="859.5" y2="1368" stroke="#185013"/>
<line x1="883.5" y1="648" x2="883.5" y2="1368" stroke="#185013"/>
<line x1="907.5" y1="648" x2="907.5" y2="1368" stroke="#185013"/>
<line x1="931.5" y1="648" x2="931.5" y2="1368" stroke="#185013"/>
<line x1="955.5" y1="648" x2="955.5" y2="1368" stroke="#185013"/>
<line x1="979.5" y1="648" x2="979.5" y2="1368" stroke="#185013"/>
<line x1="1003.5" y1="648" x2="1003.5" y2="1368" stroke="#185013"/>
<line x1="1027.5" y1="648" x2="1027.5" y2="1368" stroke="#185013"/>
<line x1="1051.5" y1="648" x2="1051.5" y2="1368" stroke="#185013"/>
<line x1="1075.5" y1="648" x2="1075.5" y2="1368" stroke="#185013"/>
<line x1="1099.5" y1="648" x2="1099.5" y2="1368" stroke="#185013"/>
<line x1="1123.5" y1="648" x2="1123.5" y2="1368" stroke="#185013"/>
<line x1="1147.5" y1="648" x2="1147.5" y2="1368" stroke="#185013"/>
<line x1="1171.5" y1="648" x2="1171.5" y2="1368" stroke="#185013"/>
<line x1="1195.5" y1="648" x2="1195.5" y2="1368" stroke="#185013"/>
<line x1="1219.5" y1="648" x2="1219.5" y2="1368" stroke="#185013"/>
<line x1="1243.5" y1="648" x2="1243.5" y2="1368" stroke="#185013"/>
<line x1="1267.5" y1="648" x2="1267.5" y2="1368" stroke="#185013"/>
<line x1="1291.5" y1="648" x2="1291.5" y2="1368" stroke="#185013"/>
<line x1="1315.5" y1="648" x2="1315.5" y2="1368" stroke="#185013"/>
<line x1="1339.5" y1="648" x2="1339.5" y2="1368" stroke="#185013"/>
<line x1="1363.5" y1="648" x2="1363.5" y2="1368" stroke="#185013"/>
<line x1="1387.5" y1="648" x2="1387.5" y2="1368" stroke="#185013"/>
<line x1="1411.5" y1="648" x2="1411.5" y2="1368" stroke="#185013"/>
<line x1="1435.5" y1="648" x2="1435.5" y2="1368" stroke="#185013"/>
<line x1="1459" y1="0.5" x2="-29" y2="0.5" stroke="#185013"/>
<line x1="1459" y1="24.5" x2="-29" y2="24.5" stroke="#185013"/>
<line x1="1459" y1="48.5" x2="-29" y2="48.5" stroke="#185013"/>
<line x1="1459" y1="72.5" x2="-29" y2="72.5" stroke="#185013"/>
<line x1="1459" y1="96.5" x2="-29" y2="96.5" stroke="#185013"/>
<line x1="1459" y1="120.5" x2="-29" y2="120.5" stroke="#185013"/>
<line x1="1459" y1="144.5" x2="-29" y2="144.5" stroke="#185013"/>
<line x1="1459" y1="168.5" x2="-29" y2="168.5" stroke="#185013"/>
<line x1="1459" y1="192.5" x2="-29" y2="192.5" stroke="#185013"/>
<line x1="1459" y1="216.5" x2="-29" y2="216.5" stroke="#185013"/>
<line x1="1459" y1="240.5" x2="-29" y2="240.5" stroke="#185013"/>
<line x1="1459" y1="264.5" x2="-29" y2="264.5" stroke="#185013"/>
<line x1="1459" y1="288.5" x2="-29" y2="288.5" stroke="#185013"/>
<line x1="1459" y1="312.5" x2="-29" y2="312.5" stroke="#185013"/>
<line x1="1459" y1="336.5" x2="-29" y2="336.5" stroke="#185013"/>
<line x1="1459" y1="360.5" x2="-29" y2="360.5" stroke="#185013"/>
<line x1="1459" y1="384.5" x2="-29" y2="384.5" stroke="#185013"/>
<line x1="1459" y1="408.5" x2="-29" y2="408.5" stroke="#185013"/>
<line x1="1459" y1="432.5" x2="-29" y2="432.5" stroke="#185013"/>
<line x1="1459" y1="456.5" x2="-29" y2="456.5" stroke="#185013"/>
<line x1="1459" y1="480.5" x2="-29" y2="480.5" stroke="#185013"/>
<line x1="1459" y1="504.5" x2="-29" y2="504.5" stroke="#185013"/>
<line x1="1459" y1="528.5" x2="-29" y2="528.5" stroke="#185013"/>
<line x1="1459" y1="552.5" x2="-29" y2="552.5" stroke="#185013"/>
<line x1="1459" y1="576.5" x2="-29" y2="576.5" stroke="#185013"/>
<line x1="1459" y1="600.5" x2="-29" y2="600.5" stroke="#185013"/>
<line x1="1459" y1="624.5" x2="-29" y2="624.5" stroke="#185013"/>
<line x1="1459" y1="648.5" x2="-29" y2="648.5" stroke="#185013"/>
<line x1="19.5" y1="-48" x2="19.5" y2="672" stroke="#185013"/>
<line x1="19.5" y1="-48" x2="19.5" y2="672" stroke="#185013"/>
<line x1="43.5" y1="-48" x2="43.5" y2="672" stroke="#185013"/>
<line x1="67.5" y1="-48" x2="67.5" y2="672" stroke="#185013"/>
<line x1="91.5" y1="-48" x2="91.5" y2="672" stroke="#185013"/>
<line x1="115.5" y1="-48" x2="115.5" y2="672" stroke="#185013"/>
<line x1="139.5" y1="-48" x2="139.5" y2="672" stroke="#185013"/>
<line x1="163.5" y1="-48" x2="163.5" y2="672" stroke="#185013"/>
<line x1="187.5" y1="-48" x2="187.5" y2="672" stroke="#185013"/>
<line x1="211.5" y1="-48" x2="211.5" y2="672" stroke="#185013"/>
<line x1="235.5" y1="-48" x2="235.5" y2="672" stroke="#185013"/>
<line x1="259.5" y1="-48" x2="259.5" y2="672" stroke="#185013"/>
<line x1="283.5" y1="-48" x2="283.5" y2="672" stroke="#185013"/>
<line x1="307.5" y1="-48" x2="307.5" y2="672" stroke="#185013"/>
<line x1="331.5" y1="-48" x2="331.5" y2="672" stroke="#185013"/>
<line x1="355.5" y1="-48" x2="355.5" y2="672" stroke="#185013"/>
<line x1="379.5" y1="-48" x2="379.5" y2="672" stroke="#185013"/>
<line x1="403.5" y1="-48" x2="403.5" y2="672" stroke="#185013"/>
<line x1="427.5" y1="-48" x2="427.5" y2="672" stroke="#185013"/>
<line x1="451.5" y1="-48" x2="451.5" y2="672" stroke="#185013"/>
<line x1="475.5" y1="-48" x2="475.5" y2="672" stroke="#185013"/>
<line x1="499.5" y1="-48" x2="499.5" y2="672" stroke="#185013"/>
<line x1="523.5" y1="-48" x2="523.5" y2="672" stroke="#185013"/>
<line x1="547.5" y1="-48" x2="547.5" y2="672" stroke="#185013"/>
<line x1="571.5" y1="-48" x2="571.5" y2="672" stroke="#185013"/>
<line x1="595.5" y1="-48" x2="595.5" y2="672" stroke="#185013"/>
<line x1="619.5" y1="-48" x2="619.5" y2="672" stroke="#185013"/>
<line x1="643.5" y1="-48" x2="643.5" y2="672" stroke="#185013"/>
<line x1="667.5" y1="-48" x2="667.5" y2="672" stroke="#185013"/>
<line x1="691.5" y1="-48" x2="691.5" y2="672" stroke="#185013"/>
<line x1="715.5" y1="-48" x2="715.5" y2="672" stroke="#185013"/>
<line x1="739.5" y1="-48" x2="739.5" y2="672" stroke="#185013"/>
<line x1="763.5" y1="-48" x2="763.5" y2="672" stroke="#185013"/>
<line x1="787.5" y1="-48" x2="787.5" y2="672" stroke="#185013"/>
<line x1="811.5" y1="-48" x2="811.5" y2="672" stroke="#185013"/>
<line x1="835.5" y1="-48" x2="835.5" y2="672" stroke="#185013"/>
<line x1="859.5" y1="-48" x2="859.5" y2="672" stroke="#185013"/>
<line x1="883.5" y1="-48" x2="883.5" y2="672" stroke="#185013"/>
<line x1="907.5" y1="-48" x2="907.5" y2="672" stroke="#185013"/>
<line x1="931.5" y1="-48" x2="931.5" y2="672" stroke="#185013"/>
<line x1="955.5" y1="-48" x2="955.5" y2="672" stroke="#185013"/>
<line x1="979.5" y1="-48" x2="979.5" y2="672" stroke="#185013"/>
<line x1="1003.5" y1="-48" x2="1003.5" y2="672" stroke="#185013"/>
<line x1="1027.5" y1="-48" x2="1027.5" y2="672" stroke="#185013"/>
<line x1="1051.5" y1="-48" x2="1051.5" y2="672" stroke="#185013"/>
<line x1="1075.5" y1="-48" x2="1075.5" y2="672" stroke="#185013"/>
<line x1="1099.5" y1="-48" x2="1099.5" y2="672" stroke="#185013"/>
<line x1="1123.5" y1="-48" x2="1123.5" y2="672" stroke="#185013"/>
<line x1="1147.5" y1="-48" x2="1147.5" y2="672" stroke="#185013"/>
<line x1="1171.5" y1="-48" x2="1171.5" y2="672" stroke="#185013"/>
<line x1="1195.5" y1="-48" x2="1195.5" y2="672" stroke="#185013"/>
<line x1="1219.5" y1="-48" x2="1219.5" y2="672" stroke="#185013"/>
<line x1="1243.5" y1="-48" x2="1243.5" y2="672" stroke="#185013"/>
<line x1="1267.5" y1="-48" x2="1267.5" y2="672" stroke="#185013"/>
<line x1="1291.5" y1="-48" x2="1291.5" y2="672" stroke="#185013"/>
<line x1="1315.5" y1="-48" x2="1315.5" y2="672" stroke="#185013"/>
<line x1="1339.5" y1="-48" x2="1339.5" y2="672" stroke="#185013"/>
<line x1="1363.5" y1="-48" x2="1363.5" y2="672" stroke="#185013"/>
<line x1="1387.5" y1="-48" x2="1387.5" y2="672" stroke="#185013"/>
<line x1="1411.5" y1="-48" x2="1411.5" y2="672" stroke="#185013"/>
<line x1="1435.5" y1="-48" x2="1435.5" y2="672" stroke="#185013"/>
</g>
<rect x="-5" width="1440" height="932" fill="url(#paint0_radial_34_3152)"/>
</g>
<defs>
<radialGradient id="paint0_radial_34_3152" cx="0" cy="0" r="1" gradientUnits="userSpaceOnUse" gradientTransform="translate(715 466) rotate(90) scale(466 720)">
<stop stop-color="#096F00" stop-opacity="0.65"/>
<stop offset="1" stop-color="#185013"/>
</radialGradient>
<clipPath id="clip0_34_3152">
<rect width="1445" height="932" fill="white" transform="translate(-5)"/>
</clipPath>
</defs>
</svg>
